<svg xmlns="http://www.w3.org/2000/svg" xmlns:xlink="http://www.w3.org/1999/xlink" width="31" height="36" viewBox="0 0 31 36"><svg width="16" height="16" viewBox="0 0 16 16" id="search" y="0"><title>search</title><path d="M15.9 13.964l-4.004-4.003a6.418 6.418 0 0 0 1.036-3.494A6.474 6.474 0 0 0 6.467 0 6.474 6.474 0 0 0 0 6.467c0 3.564 2.9 6.464 6.467 6.464a6.421 6.421 0 0 0 3.494-1.034l4.003 4.004c.133.133.35.133.484 0l1.452-1.453a.343.343 0 0 0 0-.484zM2.054 6.467a4.417 4.417 0 0 1 4.413-4.413 4.416 4.416 0 0 1 4.41 4.413 4.416 4.416 0 0 1-4.41 4.411 4.417 4.417 0 0 1-4.413-4.411z" fill="#D4D4D4" fill-rule="evenodd"></path></svg><svg width="31" height="20" viewBox="0 0 31 20" id="stairs" y="16"><title>stairs</title><path d="M12.144 14.298v4.433h17.73v-4.433h-2.216M9.928 9.865v4.433h17.73V9.865h-2.216M7.712 5.433v4.432h17.73V5.433h-2.216M5.495 1v4.433h17.73V1H5.717M.397 1h5.32m5.762 17.73H6.603L1.062 7.87V1.666" stroke="#FFF" stroke-width="2" opacity=".5" fill="none" fill-rule="evenodd"></path></svg></svg>